<svg xmlns="http://www.w3.org/2000/svg" xmlns:xlink="http://www.w3.org/1999/xlink" version="1.1" x="0px" y="0px" viewBox="0 0 96 120" enable-background="new 0 0 96 96" xml:space="preserve"><g><g><g><path fill="#000000" d="M48,96C21.533,96,0,74.467,0,48S21.533,0,48,0s48,21.533,48,48S74.467,96,48,96z M48,4     C23.738,4,4,23.738,4,48s19.738,44,44,44s44-19.738,44-44S72.262,4,48,4z"/></g><g><path fill="#000000" d="M48,67c-10.477,0-19-8.523-19-19s8.523-19,19-19s19,8.523,19,19S58.477,67,48,67z M48,33     c-8.271,0-15,6.729-15,15s6.729,15,15,15s15-6.729,15-15S56.271,33,48,33z"/></g></g><g><g><path fill="#000000" d="M82.748,43.944c-0.915-7.91-4.373-15.065-10.001-20.694c-5.628-5.628-12.784-9.086-20.694-10l0.459-3.974     c8.815,1.019,16.791,4.874,23.063,11.146S85.702,34.67,86.721,43.485L82.748,43.944z"/></g><g><path fill="#000000" d="M43.488,86.718c-8.815-1.019-16.791-4.873-23.063-11.146C14.152,69.3,10.298,61.325,9.279,52.509     l3.973-0.459c0.915,7.91,4.373,15.066,10.001,20.694c5.628,5.628,12.784,9.086,20.694,10L43.488,86.718z"/></g></g></g><text x="0" y="111" fill="#000000" font-size="5px" font-weight="bold" font-family="'Helvetica Neue', Helvetica, Arial-Unicode, Arial, Sans-serif">Created by Yaroslav Samoylov</text><text x="0" y="116" fill="#000000" font-size="5px" font-weight="bold" font-family="'Helvetica Neue', Helvetica, Arial-Unicode, Arial, Sans-serif">from the Noun Project</text></svg>