<svg xmlns="http://www.w3.org/2000/svg" xmlns:xlink="http://www.w3.org/1999/xlink" version="1.1" x="0px" y="0px" viewBox="0 0 24 30" style="enable-background:new 0 0 24 24;" xml:space="preserve"><g><path d="M18.5,13c-3.033,0-5.5,2.468-5.5,5.5s2.467,5.5,5.5,5.5s5.5-2.468,5.5-5.5S21.533,13,18.5,13z M18.5,17   c0.276,0,0.5,0.224,0.5,0.5S18.776,18,18.5,18H17v1h1.5c0.276,0,0.5,0.224,0.5,0.5S18.776,20,18.5,20H17c0,0.542,0.688,1,1.501,1   c0.965,0,1.47-0.183,1.5-0.542c0.023-0.275,0.268-0.475,0.54-0.456c0.275,0.023,0.479,0.265,0.456,0.54   C20.917,21.51,20.077,22,18.501,22C17.122,22,16,21.103,16,20h-0.5c-0.276,0-0.5-0.224-0.5-0.5s0.224-0.5,0.5-0.5H16v-1h-0.5   c-0.276,0-0.5-0.224-0.5-0.5s0.224-0.5,0.5-0.5H16c0-1.103,1.122-2,2.501-2c1.575,0,2.416,0.49,2.497,1.458   c0.023,0.275-0.181,0.517-0.456,0.54c-0.272,0.026-0.517-0.181-0.54-0.456c-0.03-0.359-0.535-0.542-1.5-0.542   C17.688,16,17,16.458,17,17H18.5z"/><path d="M17.5,0h-11C6.435,0,6.37,0.013,6.309,0.038C6.248,0.064,6.192,0.101,6.146,0.147L0.147,6.146   C0.101,6.192,0.064,6.248,0.038,6.309C0.013,6.37,0,6.435,0,6.5v15C0,21.776,0.224,22,0.5,22h11.686   c0.172,0,0.331-0.088,0.423-0.233c0.092-0.145,0.103-0.327,0.028-0.481C12.214,20.398,12,19.462,12,18.5   c0-3.206,2.396-5.968,5.571-6.425C17.817,12.04,18,11.829,18,11.58V0.5C18,0.224,17.776,0,17.5,0z M6,1.707V5.5   C6,5.776,5.776,6,5.5,6H1.707L6,1.707z M11.5,8H10v5.5c0,0.841-0.879,1.5-2,1.5s-2-0.659-2-1.5S6.879,12,8,12   c0.369,0,0.706,0.077,1,0.202V7h2.5C11.776,7,12,7.224,12,7.5S11.776,8,11.5,8z"/></g><text x="0" y="39" fill="#000000" font-size="5px" font-weight="bold" font-family="'Helvetica Neue', Helvetica, Arial-Unicode, Arial, Sans-serif">Created by icon 54</text><text x="0" y="44" fill="#000000" font-size="5px" font-weight="bold" font-family="'Helvetica Neue', Helvetica, Arial-Unicode, Arial, Sans-serif">from the Noun Project</text></svg>