<svg xmlns="http://www.w3.org/2000/svg" xmlns:xlink="http://www.w3.org/1999/xlink" version="1.1" x="0px" y="0px" viewBox="0 0 100 125" enable-background="new 0 0 100 100" xml:space="preserve"><path d="M63.441,50.973c-2.188-2.249-5.494-3.935-10.082-3.361c-0.314-1.952-0.875-4.229-1.295-6.248  c-0.098-0.462-0.473-1.833-0.414-2.122c0.047-0.229,0.541-0.513,0.824-0.826c3.943-4.34,6.971-9.651,7.9-16.978  c0.805-6.346-0.543-12.427-2.83-16.623c-0.703-1.293-1.824-3.205-3.242-3.714c-0.195,0-0.393,0-0.59,0  c-4.636,2.004-6.816,6.701-7.839,12.32c-0.948,5.202-0.516,10.864,0.59,15.74c0.138,0.606,0.574,1.527,0.53,1.944  c-0.037,0.351-0.795,0.913-1.179,1.298c-4.526,4.525-8.79,8.963-11.555,15.149c-1.008,2.256-1.744,5.037-1.945,7.84  c0,0.492,0,0.981,0,1.474c0.521,6.556,3.223,11.374,7.073,14.796c3.666,3.258,9.308,6.026,16.506,4.54  c0.523,2.286,1.236,5.011,1.77,7.664c0.535,2.669,0.727,5.985-0.414,8.252c-1.379,2.742-6.624,5.081-9.904,2.713  c2.158-0.347,3.489-1.523,4.246-3.125c2.471-5.232-3.312-10.842-8.076-8.135c-1.857,1.056-3.664,3.371-3.656,6.661  c0.009,2.846,1.479,4.793,3.125,6.131c1.77,1.438,3.917,2.337,6.779,2.536c0.452,0,0.904,0,1.357,0  c5.348-0.643,8.994-3.262,9.961-8.136c0.559-2.815-0.08-5.545-0.588-8.077c-0.523-2.6-1.109-5.107-1.533-7.545  c4.75-2.049,7.945-5.653,8.725-11.673c0-1.021,0-2.043,0-3.066C67.262,56.445,65.674,53.267,63.441,50.973z M51.709,12.949  c0.658-1.029,2.76-3.21,4.48-1.887c0.604,0.465,0.809,1.539,0.885,2.535c0.275,3.576-1.143,6.562-2.535,9.02  c-0.699,1.23-1.475,2.405-2.299,3.478c-0.846,1.102-1.671,2.236-2.771,2.89C47.874,24.026,49.376,16.603,51.709,12.949z   M43.044,71.133c-3.012-2.159-5.25-5.673-5.542-9.904c-0.163-2.371,0.415-4.771,1.119-6.602c2.103-5.457,6.545-9.56,10.317-13.087  c0.05-0.012,0.055,0.022,0.059,0.06c0.491,2.2,0.847,4.536,1.356,6.72c-3.886,2.133-7.314,5.532-7.604,11.318  c-0.24,4.779,2.749,8.534,6.366,10.021c0.85,0.349,2.681,0.995,2.888-0.295c0.184-1.14-0.996-1.255-1.768-1.708  c-1.628-0.958-3.211-3.258-3.006-5.954c0.227-2.995,2.433-4.664,4.596-5.895c1.258,5.678,2.342,11.529,3.479,17.329  C50.592,74.442,45.938,73.207,43.044,71.133z M58.252,72.076c-1.074-5.547-2.412-11.147-3.301-16.684  c2.049,0.236,3.822,1.011,5.129,2.358c1.357,1.396,2.549,3.688,2.594,5.896C62.758,67.694,61.113,70.66,58.252,72.076z"/><text x="0" y="115" fill="#000000" font-size="5px" font-weight="bold" font-family="'Helvetica Neue', Helvetica, Arial-Unicode, Arial, Sans-serif">Created by Elizabeth Lopez</text><text x="0" y="120" fill="#000000" font-size="5px" font-weight="bold" font-family="'Helvetica Neue', Helvetica, Arial-Unicode, Arial, Sans-serif">from the Noun Project</text></svg>