<svg xmlns="http://www.w3.org/2000/svg" xmlns:xlink="http://www.w3.org/1999/xlink" version="1.1" x="0px" y="0px" viewBox="0 0 96 120" style="enable-background:new 0 0 96 96;" xml:space="preserve"><g><path d="M81.3,83.2H14.7c-2.2,0-4-1.7-4-3.8L9,37.4c-0.1-2.3,1.7-4.2,4-4.2H83c2.3,0,4.1,1.9,4,4.2l-1.7,42   C85.2,81.6,83.4,83.2,81.3,83.2z"/><path d="M83,29.8H13V15.8c0-1.7,1.4-3.1,3-3.1h22.1c0.5,0,1,0.2,1.3,0.5l5.2,4.6H80c1.7,0,3,1.4,3,3.1V29.8z"/></g><text x="0" y="111" fill="#000000" font-size="5px" font-weight="bold" font-family="'Helvetica Neue', Helvetica, Arial-Unicode, Arial, Sans-serif">Created by Kuber</text><text x="0" y="116" fill="#000000" font-size="5px" font-weight="bold" font-family="'Helvetica Neue', Helvetica, Arial-Unicode, Arial, Sans-serif">from the Noun Project</text></svg>