<?xml version="1.0" encoding="utf-8"?>
<!-- Generator: Adobe Illustrator 16.0.0, SVG Export Plug-In . SVG Version: 6.00 Build 0)  -->
<!DOCTYPE svg PUBLIC "-//W3C//DTD SVG 1.1//EN" "http://www.w3.org/Graphics/SVG/1.1/DTD/svg11.dtd">
<svg version="1.1" id="Layer_1" xmlns="http://www.w3.org/2000/svg" xmlns:xlink="http://www.w3.org/1999/xlink" x="0px" y="0px"
	 width="512px" height="512px" viewBox="0 0 512 512" enable-background="new 0 0 512 512" xml:space="preserve">
<g>
	<polygon points="419.84,0 133.12,0 133.12,40.96 419.84,40.96 419.84,327.68 460.8,327.68 460.8,40.96 460.8,0 	"/>
	<path d="M51.2,81.92V409.6h327.68V81.92H51.2z M288.768,153.047v43.688v90.476l0,0c0,11.846-11.91,25.007-28.664,27.387
		c-17.739,2.502-33.853-6.292-35.774-19.915c-1.925-13.615,10.048-26.571,27.788-29.081c7.709-1.09,16.171,0.109,20.267,2.813
		v-70.677c-16.384,1.598-49.152,5.591-81.92,15.143v94.069l0,0c0,11.846-11.162,24.711-27.918,27.075
		c-17.736,2.506-33.948-6.432-35.869-20.055c-1.925-13.623,11.772-26.656,29.508-29.16c7.713-1.08,13.799,0.041,21.991,2.741V172.72
		l0,0v-5.956c0,0,36.864-24.343,110.592-20.603V153.047z"/>
</g>
</svg>
