<?xml version="1.0" encoding="utf-8"?>
<!-- Generator: Adobe Illustrator 16.0.0, SVG Export Plug-In . SVG Version: 6.00 Build 0)  -->
<!DOCTYPE svg PUBLIC "-//W3C//DTD SVG 1.1//EN" "http://www.w3.org/Graphics/SVG/1.1/DTD/svg11.dtd">
<svg version="1.1" id="Layer_1" xmlns="http://www.w3.org/2000/svg" xmlns:xlink="http://www.w3.org/1999/xlink" x="0px" y="0px"
	 width="512px" height="512px" viewBox="0 0 512 512" enable-background="new 0 0 512 512" xml:space="preserve">
<title>Music mine</title>
<path d="M391.712,266.216V145.302l-55.665,15.975c-38.584,11.059-77.127,22.282-115.834,32.768
	c-7.414,2.048-9.954,5.12-9.913,13.025c0.355,60.485,0.355,120.982,0,181.494c0.456,39.382-31.099,71.677-70.48,72.133
	c-29.246,0.339-55.733-17.214-66.817-44.28c-11.034-26.396-4.904-56.85,15.483-76.923c21.586-20.972,47.145-26.501,75.776-16.589
	c3.604,1.27,7.086,2.949,12.083,5.079c0-4.874,0-8.602,0-12.288c0-61.221,0-122.429,0-183.624c0-5.529,0-9.625,7.168-11.673
	c78.929-22.364,157.696-45.179,236.625-67.83c1.639-0.45,3.359-0.778,5.571-1.27c0.204,2.54,0.532,4.587,0.532,6.595
	c0,90.398,0.286,180.797,0,271.155c0,40.264-33.751,71.229-74.548,70c-39.304-1.65-69.828-34.85-68.178-74.154
	c1.649-39.305,34.85-69.829,74.154-68.179c7.979,0.335,15.846,2.009,23.27,4.954C384.093,263.021,387.288,264.291,391.712,266.216z"
	/>
</svg>
