<svg xmlns="http://www.w3.org/2000/svg" xmlns:xlink="http://www.w3.org/1999/xlink" version="1.1" x="0px" y="0px" viewBox="0 0 32 32.5" style="enable-background:new 0 0 32 26;" xml:space="preserve"><g><g><path d="M32,2c0-1.105-0.895-2-2-2H2C0.895,0,0,0.895,0,2v22c0,1.105,0.895,2,2,2h28c1.105,0,2-0.895,2-2V2z M30,23    c0,0.552-0.448,1-1,1H9c-0.552,0-1-0.448-1-1V3c0-0.552,0.448-1,1-1h20c0.552,0,1,0.448,1,1V23z"/><path d="M18.956,4c-4.971,0-9,4.029-9,9s4.029,9,9,9c4.971,0,9-4.029,9-9S23.926,4,18.956,4z M18.956,16c-1.657,0-3-1.343-3-3    s1.343-3,3-3s3,1.343,3,3S20.613,16,18.956,16z"/><circle cx="18.956" cy="13" r="1"/></g></g><text x="0" y="41" fill="#000000" font-size="5px" font-weight="bold" font-family="'Helvetica Neue', Helvetica, Arial-Unicode, Arial, Sans-serif">Created by Dmitry Mirolyubov</text><text x="0" y="46" fill="#000000" font-size="5px" font-weight="bold" font-family="'Helvetica Neue', Helvetica, Arial-Unicode, Arial, Sans-serif">from the Noun Project</text></svg>