<svg xmlns="http://www.w3.org/2000/svg" xmlns:xlink="http://www.w3.org/1999/xlink" version="1.1" x="0px" y="0px" viewBox="0 0 26 40" style="enable-background:new 0 0 26 32;" xml:space="preserve"><g><g><path d="M16,0c-0.553,0-1,0.448-1,1v14.887c0,0.996-0.678,1.922-1.661,2.085C12.087,18.179,11,17.214,11,16V1c0-0.552-0.447-1-1-1    S9,0.448,9,1v15c0,1.476,0.808,2.76,2.002,3.449C11.619,19.805,12,20.461,12,21.173v6.311c0,0.458-0.215,0.871-0.516,1.217    c-0.402,0.462-0.596,1.107-0.427,1.8c0.176,0.719,0.779,1.301,1.504,1.453c1.294,0.272,2.433-0.708,2.433-1.954    c0-0.527-0.204-1.004-0.539-1.359C14.184,28.353,14,27.995,14,27.598v-6.425c0-0.712,0.381-1.368,0.998-1.724    C16.192,18.76,17,17.476,17,16V1C17,0.448,16.553,0,16,0z"/><path d="M19.367,6.221c-0.431,0.346-0.498,0.976-0.152,1.406c1.035,1.286,1.035,3.46,0,4.746c-0.346,0.43-0.278,1.06,0.152,1.406    C19.552,13.928,19.773,14,19.993,14c0.293,0,0.583-0.127,0.78-0.373c1.636-2.034,1.636-5.22,0-7.254    C20.426,5.943,19.797,5.874,19.367,6.221z"/><path d="M23.726,4.305c-0.383-0.397-1.018-0.408-1.414-0.024c-0.397,0.384-0.408,1.017-0.025,1.414    c2.293,2.374,2.293,6.236,0,8.61c-0.383,0.397-0.372,1.03,0.025,1.414C22.505,15.907,22.756,16,23.006,16    c0.262,0,0.523-0.102,0.72-0.305C26.758,12.555,26.758,7.445,23.726,4.305z"/><path d="M6.621,6.221C6.191,5.875,5.56,5.944,5.215,6.373c-1.636,2.034-1.636,5.22,0,7.254C5.413,13.873,5.702,14,5.995,14    c0.22,0,0.441-0.072,0.626-0.221c0.431-0.346,0.498-0.976,0.152-1.406c-1.035-1.286-1.035-3.46,0-4.746    C7.119,7.197,7.052,6.567,6.621,6.221z"/><path d="M3.714,5.695c0.383-0.397,0.372-1.03-0.025-1.414c-0.396-0.383-1.03-0.373-1.414,0.024c-3.032,3.14-3.032,8.25,0,11.39    C2.47,15.898,2.732,16,2.994,16c0.25,0,0.501-0.093,0.694-0.281c0.397-0.384,0.408-1.017,0.025-1.414    C1.421,11.931,1.421,8.069,3.714,5.695z"/></g></g><text x="0" y="47" fill="#000000" font-size="5px" font-weight="bold" font-family="'Helvetica Neue', Helvetica, Arial-Unicode, Arial, Sans-serif">Created by Dmitry Mirolyubov</text><text x="0" y="52" fill="#000000" font-size="5px" font-weight="bold" font-family="'Helvetica Neue', Helvetica, Arial-Unicode, Arial, Sans-serif">from the Noun Project</text></svg>