<svg xmlns="http://www.w3.org/2000/svg" xmlns:xlink="http://www.w3.org/1999/xlink" version="1.1" x="0px" y="0px" viewBox="0 0 100 125" enable-background="new 0 0 100 100" xml:space="preserve"><path d="M62.1,9.5c1-0.8,2.3-0.9,2.3-0.9l0.4,0.1l0,0l10.6,1.5c0,0,4,0,6.3,4.1l-53,67c0,0-14.2-3.4-17.4-6.1c0,0-0.1-0.1-0.3-0.4  c-0.1-0.1-0.1-0.2-0.2-0.4c0-0.1-0.1-0.2-0.1-0.3c0-0.1,0-0.1,0-0.2c0-0.2,0-0.4,0-0.6c0-0.1,0-0.1,0-0.1c0-0.3,0-0.6,0.1-0.9  c0-0.1,0-0.2,0.1-0.2c0.1-0.3,0.2-0.6,0.3-1c0-0.1,0.1-0.2,0.1-0.4c0.2-0.5,0.4-1,0.6-1.5C16.4,59.2,49.6,18.7,62.1,9.5z M90.9,16.3  l-5.5,7l0.5,0.7L33.4,90.4l-0.6-0.6l-3.6,4.5c-0.4,0.6-1.4,0.8-2,0.6L10,89.1c-0.7-0.2-1.6-0.9-2-1.5l-2.7-3.8  c-0.4-0.6-0.4-1.5,0.1-2.1l4.4-5.5c0.1,0.1,0.2,0.2,0.3,0.3c3.5,2.9,16.6,6.1,18.1,6.5l1.1,0.3l0.7-0.9l53-67l0.8-1l-0.6-1.1  c-2.6-4.5-6.8-4.9-7.7-5l-9.4-1.4l0.7-0.9c0.4-0.6,1.4-0.9,2.1-0.8l17.2,2.8c0.7,0.1,1.6,0.7,2,1.3l2.9,4.6  C91.3,14.7,91.3,15.7,90.9,16.3z M16.9,81.4c-1-0.4-2.2,0-2.5,0.9c-0.4,0.9,0.2,1.9,1.3,2.4c1,0.4,2.2,0,2.5-0.9  C18.5,82.9,17.9,81.8,16.9,81.4z M39.6,79.6L37,75.3l-3.6,4.6l2.7,4.2L39.6,79.6z M44.5,73.3L41.9,69l-3.6,4.6l2.7,4.2L44.5,73.3z   M49.5,67.1l-2.6-4.3l-3.6,4.6l2.7,4.2L49.5,67.1z M54.4,60.8l-2.6-4.3l-3.6,4.6l2.7,4.2L54.4,60.8z M59.4,54.6l-2.7-4.3l-3.6,4.6  l2.7,4.2L59.4,54.6z M64.3,48.3L61.7,44l-3.6,4.6l2.7,4.2L64.3,48.3z M69.3,42.1l-2.6-4.3L63,42.4l2.7,4.2L69.3,42.1z M74.2,35.8  l-2.6-4.3l-3.6,4.6l2.7,4.2L74.2,35.8z M79.2,29.6l-2.6-4.3l-3.6,4.6l2.7,4.2L79.2,29.6z M84.1,23.3l-2.6-4.3l-3.6,4.6l2.7,4.2  L84.1,23.3z"/><text x="0" y="115" fill="#000000" font-size="5px" font-weight="bold" font-family="'Helvetica Neue', Helvetica, Arial-Unicode, Arial, Sans-serif">Created by Angela Gasparetti</text><text x="0" y="120" fill="#000000" font-size="5px" font-weight="bold" font-family="'Helvetica Neue', Helvetica, Arial-Unicode, Arial, Sans-serif">from the Noun Project</text></svg>