<svg xmlns="http://www.w3.org/2000/svg" xmlns:xlink="http://www.w3.org/1999/xlink" version="1.1" x="0px" y="0px" viewBox="0 0 32 32.5" style="enable-background:new 0 0 32 26;" xml:space="preserve"><g><g><circle cx="5.956" cy="17" r="2"/><circle cx="25.956" cy="17" r="2"/><path d="M29.956,6h-2C27.403,6,27,5.553,27,5V3c0-1.657-1.387-3-3.044-3h-16C6.299,0,5,1.343,5,3v2c0,0.552-0.492,1-1.044,1h-2    C0.851,6,0,6.896,0,8v16c0,1.105,0.851,2,1.956,2h28C31.06,26,32,25.105,32,24V8C32,6.896,31.06,6,29.956,6z M25,5    c0,0.552-0.448,1-1,1H8C7.448,6,7,5.552,7,5V3c0-0.552,0.448-1,1-1h16c0.552,0,1,0.448,1,1V5z M18.956,9c0,0.552-0.448,1-1,1h-4    c-0.552,0-1-0.448-1-1s0.448-1,1-1h4C18.508,8,18.956,8.448,18.956,9z M2.956,8c0.552,0,1,0.448,1,1s-0.448,1-1,1s-1-0.448-1-1    S2.404,8,2.956,8z M5.956,21c-2.208,0-4-1.791-4-4s1.792-4,4-4s4,1.791,4,4S8.164,21,5.956,21z M18.956,20h-6    c-0.552,0-1-0.448-1-1s0.448-1,1-1h6c0.552,0,1,0.448,1,1S19.508,20,18.956,20z M18.956,16h-6c-0.552,0-1-0.448-1-1s0.448-1,1-1h6    c0.552,0,1,0.448,1,1S19.508,16,18.956,16z M25.956,21c-2.208,0-4-1.791-4-4s1.792-4,4-4s4,1.791,4,4S28.164,21,25.956,21z     M28.956,10c-0.552,0-1-0.448-1-1s0.448-1,1-1s1,0.448,1,1S29.508,10,28.956,10z"/></g></g><text x="0" y="41" fill="#000000" font-size="5px" font-weight="bold" font-family="'Helvetica Neue', Helvetica, Arial-Unicode, Arial, Sans-serif">Created by Dmitry Mirolyubov</text><text x="0" y="46" fill="#000000" font-size="5px" font-weight="bold" font-family="'Helvetica Neue', Helvetica, Arial-Unicode, Arial, Sans-serif">from the Noun Project</text></svg>