<svg xmlns="http://www.w3.org/2000/svg" xmlns:xlink="http://www.w3.org/1999/xlink" version="1.1" x="0px" y="0px" viewBox="0 0 30 40" style="enable-background:new 0 0 30 32;" xml:space="preserve"><g><path d="M29.707,28.707l-0.414-0.414C29.105,28.105,29,27.851,29,27.586V25c0-1.105-0.895-2-2-2H7   c-0.754,0-1.411,0.418-1.751,1.035C5.135,24.241,4.829,24.212,4.726,24C3.851,22.198,3,19.645,3,16.5v-1h0.185   c0.051,0.237,0.12,0.469,0.193,0.696c0.199,0.533,0.454,1.032,0.771,1.461c0.629,0.864,1.439,1.466,2.19,1.819   c0.379,0.173,0.74,0.294,1.065,0.374c0.319,0.074,0.618,0.121,0.887,0.138C8.577,20.021,8.879,19.995,9,20   c0.104-0.001,1.78,0,1.78,0c0.265,0,0.534,0.092,0.706,0.294c0.145,0.17,0.319,0.315,0.514,0.429V21c0,0.552,0.447,1,1,1   s1-0.448,1-1v-0.278c0.727-0.423,1.17-1.282,0.938-2.226c-0.171-0.694-0.739-1.262-1.433-1.433   c-0.805-0.198-1.547,0.094-2.012,0.634C11.318,17.901,11.049,18,10.78,18c0,0-1.306,0.025-1.74,0   c-0.013-0.001-0.058-0.004-0.147-0.017c-0.085-0.013-0.299-0.02-0.394-0.063c-0.115-0.026-0.275-0.075-0.475-0.149   c-0.19-0.077-0.395-0.18-0.605-0.311c-0.414-0.271-0.829-0.688-1.108-1.212c-0.143-0.261-0.235-0.552-0.304-0.845   c-0.022-0.15-0.053-0.298-0.053-0.451c-0.005-0.075,0.003-0.404,0.003-0.379c0.051-0.549,0.106-0.614,0.214-0.928   c0.118-0.261,0.251-0.505,0.422-0.71c0.336-0.414,0.752-0.69,1.123-0.841c0.362-0.142,1.072-0.112,1.173-0.101   c0,0,3.49,0.206,4.61,0.506c3.092,0.829,6.332,3.669,8.677,7.068C22.367,19.844,22.678,20,23,20c0.01,0,0.021-0.004,0.031-0.005V20   C24.119,20,25,19.119,25,18.031V1.969C25,0.881,24.119,0,23.031,0v0.007c-0.335-0.011-0.658,0.14-0.854,0.425   C19.832,3.831,16.61,6.743,13.5,7.5c-1.135,0.276-4.429,0.547-5.356,0.685c-0.54,0.08-1.305,0.313-2.103,0.784   c-0.793,0.472-1.602,1.216-2.174,2.191c-0.289,0.485-0.503,1.031-0.653,1.596c-0.059,0.216-0.1,0.483-0.13,0.745H3   c0-0.552-0.447-1-1-1s-1,0.448-1,1c-0.553,0-1,0.448-1,1s0.447,1,1,1v1c0,3.753,1.125,7.502,3.169,10.556   C4.361,27.344,4.678,27.5,5,27.5v0.086c0,0.265-0.105,0.52-0.293,0.707l-0.414,0.414C4.105,28.895,4,29.149,4,29.414V30   c0,1.105,0.895,2,2,2h22c1.105,0,2-0.895,2-2v-0.586C30,29.149,29.895,28.895,29.707,28.707z"/></g><text x="0" y="47" fill="#000000" font-size="5px" font-weight="bold" font-family="'Helvetica Neue', Helvetica, Arial-Unicode, Arial, Sans-serif">Created by Dmitry Mirolyubov</text><text x="0" y="52" fill="#000000" font-size="5px" font-weight="bold" font-family="'Helvetica Neue', Helvetica, Arial-Unicode, Arial, Sans-serif">from the Noun Project</text></svg>