<svg xmlns="http://www.w3.org/2000/svg" xmlns:xlink="http://www.w3.org/1999/xlink" version="1.1" x="0px" y="0px" viewBox="0 0 24 40" style="enable-background:new 0 0 24 32;" xml:space="preserve"><g><path d="M17.922,0.113c-1.956,0.408-3.507,2.033-3.846,4.002c-0.352,2.048,0.545,3.915,2.052,4.973   C16.653,9.456,17,10.026,17,10.667l0,5.919c0,0.265,0.105,0.52,0.293,0.707l0.414,0.413C17.895,17.894,18,18.148,18,18.413l0,3.378   c0,3.049-2.186,5.77-5.211,6.158C9.13,28.419,6,25.568,6,22v-3.586c0-0.265,0.105-0.52,0.293-0.707l0.414-0.413   C6.895,17.105,7,16.851,7,16.585l0-5.919c0-0.641,0.347-1.211,0.871-1.579c1.507-1.059,2.404-2.925,2.052-4.973   c-0.338-1.969-1.89-3.593-3.846-4.002C2.846-0.562,0,1.887,0,5c0,1.704,0.855,3.206,2.157,4.108C2.674,9.465,3,10.034,3,10.662   l0,5.924c0,0.265,0.105,0.52,0.293,0.707l0.414,0.413C3.895,17.894,4,18.148,4,18.413V31c0,0.552,0.448,1,1,1h0   c0.552,0,1-0.448,1-1v-3.726c1.523,1.73,3.773,2.806,6.273,2.722C16.633,29.849,20,26.074,20,21.712l0-3.298   c0-0.265,0.105-0.52,0.293-0.707l0.414-0.413C20.895,17.105,21,16.851,21,16.585l0-5.924c0-0.628,0.326-1.197,0.842-1.554   C23.145,8.206,24,6.704,24,5C24,1.887,21.154-0.562,17.922,0.113z M5,7C3.896,7,3,6.104,3,5c0-1.105,0.896-2,2-2s2,0.895,2,2   C7,6.104,6.104,7,5,7z M19,7c-1.104,0-2-0.895-2-2c0-1.105,0.896-2,2-2s2,0.895,2,2C21,6.104,20.104,7,19,7z"/></g><text x="0" y="47" fill="#000000" font-size="5px" font-weight="bold" font-family="'Helvetica Neue', Helvetica, Arial-Unicode, Arial, Sans-serif">Created by Dmitry Mirolyubov</text><text x="0" y="52" fill="#000000" font-size="5px" font-weight="bold" font-family="'Helvetica Neue', Helvetica, Arial-Unicode, Arial, Sans-serif">from the Noun Project</text></svg>