<svg xmlns="http://www.w3.org/2000/svg" xmlns:xlink="http://www.w3.org/1999/xlink" version="1.1" x="0px" y="0px" viewBox="0 0 18 40" style="enable-background:new 0 0 18 32;" xml:space="preserve"><g><path d="M17.371,12.749l-4-1.082C12.715,11.404,12,11.888,12,12.595v2.523l0,11.005c0,0.945-1.101,1.82-2.044,1.876   C7.616,28.138,7,25.943,7,24v-2c0.553,0,1-0.447,1-1s-0.447-1-1-1v-1c0.553,0,1-0.447,1-1s-0.447-1-1-1v-1c0.553,0,1-0.447,1-1   s-0.447-1-1-1H6.974c-0.026-0.78-0.085-1.559-0.202-2.332c-0.197-1.293-0.474-3.078-0.637-3.953C6.045,7.231,6,6.745,6,6.252V3.778   C6,1.691,4.309,0,2.222,0H1C0.447,0,0,0.448,0,1s0.447,1,1,1h1.222C3.204,2,4,2.796,4,3.778v2.475c0,0.493-0.045,0.979-0.135,1.463   c-0.163,0.875-0.441,2.66-0.637,3.953C3.076,12.665,3,13.669,3,14.678v10.296c0,2.989,1.854,5.74,4.699,6.657   C12.528,33.187,17,29.606,17,25v-8.586c0-0.265,0.105-0.52,0.293-0.707l0.414-0.414C17.895,15.105,18,14.851,18,14.586v-0.909   C18,13.268,17.751,12.9,17.371,12.749z"/></g><text x="0" y="47" fill="#000000" font-size="5px" font-weight="bold" font-family="'Helvetica Neue', Helvetica, Arial-Unicode, Arial, Sans-serif">Created by Dmitry Mirolyubov</text><text x="0" y="52" fill="#000000" font-size="5px" font-weight="bold" font-family="'Helvetica Neue', Helvetica, Arial-Unicode, Arial, Sans-serif">from the Noun Project</text></svg>