<svg xmlns="http://www.w3.org/2000/svg" xmlns:xlink="http://www.w3.org/1999/xlink" xmlns:a="http://ns.adobe.com/AdobeSVGViewerExtensions/3.0/" version="1.1" x="0px" y="0px" viewBox="0 -22.008 100 125" overflow="visible" enable-background="new 0 -22.008 100 100" xml:space="preserve"><path d="M28.693,0C14.525,0,3.041,3.854,3.041,8.605s11.485,8.605,25.652,8.605c14.167,0,25.652-3.854,25.652-8.605  S42.86,0,28.693,0z M28.693,15.957c-12.103,0-21.913-3.291-21.913-7.352s9.811-7.352,21.913-7.352  c12.102,0,21.913,3.291,21.913,7.352S40.795,15.957,28.693,15.957z"/><ellipse cx="31.904" cy="6.168" rx="7.154" ry="2.438"/><path d="M78.405,4.258c-8.478,0-15.351,2.398-15.351,5.359c0,2.959,6.873,5.357,15.351,5.357c8.478,0,15.351-2.398,15.351-5.357  C93.755,6.656,86.883,4.258,78.405,4.258z M78.405,13.561c-6.913,0-12.517-1.869-12.517-4.176s5.604-4.176,12.517-4.176  s12.517,1.869,12.517,4.176S85.318,13.561,78.405,13.561z"/><ellipse cx="78.405" cy="8.227" rx="6.269" ry="2.092"/><path d="M54.345,9.006c0,4.754-11.485,8.605-25.652,8.605c-14.167,0-25.652-3.852-25.652-8.605c0,0-4.575,18.811-2.501,24.66  c3.542,9.99,16.438,19.779,16.438,19.779s2.967,2.539,11.716,2.539c6.01,0,10.364-2.807,10.364-2.807s12.598-8.219,17.208-19.109  C58.718,28.273,54.345,9.006,54.345,9.006z"/><path d="M93.755,10.018c0,2.959-6.873,5.357-15.351,5.357c-8.478,0-15.351-2.398-15.351-5.357c0,0-5.487,13.42-5.553,18.004  c-0.089,6.266,7.216,22.951,7.216,22.951s5.613,3.809,13.687,3.809c7.261,0,13.274-3.908,13.274-3.908s8.15-15.701,8.319-21.449  C100.147,24.33,93.755,10.018,93.755,10.018z"/><text x="0" y="92.992" fill="#000000" font-size="5px" font-weight="bold" font-family="'Helvetica Neue', Helvetica, Arial-Unicode, Arial, Sans-serif">Created by Shankar Narayan </text><text x="0" y="97.992" fill="#000000" font-size="5px" font-weight="bold" font-family="'Helvetica Neue', Helvetica, Arial-Unicode, Arial, Sans-serif">from the Noun Project</text></svg>