<svg xmlns="http://www.w3.org/2000/svg" xmlns:xlink="http://www.w3.org/1999/xlink" version="1.1" x="0px" y="0px" viewBox="0 0 100 125" enable-background="new 0 0 100 100" xml:space="preserve"><g><path d="M79.1,61.8l1.1,13.8l3,2.3l3-2.3l1.1-19.1C83.1,57.5,79.1,61.8,79.1,61.8z"/><polygon points="19.2,79.4 22.1,81.3 25,80.5 26,67.7 18.2,64.8  "/><path d="M39.3,72.7l-2-0.6v8.5l-4.9,0.8c-0.5,0.1-0.6,0.8-0.1,1l2.7,1c0.1,0,0.2,0,0.3,0l3.9-1.4V72.7z"/><path d="M41.7,82.3l-4,1.9c-0.5,0.1-0.6,0.8-0.1,1l2.3,1.1c0.1,0,0.2,0,0.3,0l3.5-2.6v-9.3l-2-0.6V82.3z"/><path d="M88.3,33.5c-4.6-1-12-2.1-21.3-2.1c10.1-3.2,10.8-13.9,7-16.1c-4.2-2.5-3.6-1.9-5.7-7c-1.6-3.9-8.6-3.4-11.8-3   c-1,0.1-1.9,0.6-2.6,1.3l-27,28.8c-2.3,0.3-4.1,0.6-5.3,0.7c-1.1,0.2-1.9,0.9-2.2,1.9c-0.7,2.4-2.4,6.5-6,6.9l-3.4-0.2   c-1.9-0.1-3.6,1.5-3.6,3.4v10.4l37.3,13.7l5.7-1.3c0,0,3.5-0.1,3.8,1.9l1.4,19.7l3,2.2l4-1.9l1.4-20c0.1-1.7,1.6-3.3,2.9-4.4   c0.7-0.6,1.5-1.2,2.2-1.7c3.4-0.8,6.4-2.6,8.8-5.1c2.3-2.5,6-5.6,10.8-7.7c3.7-1.6,6.1-5.2,6.1-9.3V40   C93.6,36.8,91.4,34.1,88.3,33.5z M16,53.9v1.9l-4.2-1.6v-1.1c0-1.6,1.9-1.6,3.5-1.6l3.1,1.1L16.8,53C16.3,53.1,16,53.5,16,53.9z    M21.8,56.9V58l-3.9-1.5c0,0,0,0,0-0.1v-1.8l4.1-0.8l3.9,1.4L22.6,56C22.2,56.1,21.8,56.5,21.8,56.9z M27.9,59.1v1.2l-4.1-1.5v-1   l5.5-1.3l2.9,1l-3.5,0.7C28.2,58.2,27.9,58.6,27.9,59.1z M29.8,59.9l5.1-1c0.2,0,0.4-0.1,0.5-0.3l3.7,1.3l-4,0.8   c-0.5,0.1-0.8,0.5-0.8,0.9v1.1L29.8,61V59.9z M40.8,63.4v1.7l-4.5-1.7v-1l6.4-1.2l1.3,0.4C42.8,62.2,40.8,62.1,40.8,63.4z    M79.6,39.3c-2.3,0.4-4,1.3-5,2.1c-1.1,0.8-2.3,1.4-3.6,1.6l-2.2,0.2L67.8,41l0,0l-0.2-0.4l0,0L57.5,16.2c-0.2-0.6-0.8-1-1.5-1   c-0.1,0-0.3,0-0.4,0.1c-0.9,0.2-1.3,1.2-1,2l8.9,23.6l1,2.9l-9.4,1l-22-6C43.4,37,52.2,36,59.4,35.5L52.8,18c0,0,0,0,0,0   C52.5,17,52.5,16,53,15.2c0.4-0.8,1.2-1.5,2.1-1.7c0.3-0.1,0.6-0.1,0.9-0.1c1.4,0,2.7,0.9,3.2,2.2L67.4,35   c5.5-0.2,9.7-0.1,12.2,0.1C86,35.8,83.7,38.6,79.6,39.3z"/></g><text x="0" y="115" fill="#000000" font-size="5px" font-weight="bold" font-family="'Helvetica Neue', Helvetica, Arial-Unicode, Arial, Sans-serif">Created by parkjisun</text><text x="0" y="120" fill="#000000" font-size="5px" font-weight="bold" font-family="'Helvetica Neue', Helvetica, Arial-Unicode, Arial, Sans-serif">from the Noun Project</text></svg>