<svg xmlns="http://www.w3.org/2000/svg" xmlns:xlink="http://www.w3.org/1999/xlink" version="1.1" x="0px" y="0px" viewBox="0 0 100 125" enable-background="new 0 0 100 100" xml:space="preserve"><g><path d="M32.9,65.4c-0.6-4.1-3.6-7.2-7-7.2c-0.3,0-0.6,0-0.8,0.1c-3.6,0.6-5.9,4.7-5.2,9.2c0.6,4.1,3.6,7.2,7,7.2   c0.3,0,0.6,0,0.8-0.1C31.3,74,33.6,69.9,32.9,65.4z"/><path d="M45.6,64.2c-1-10.1-7.9-17.7-15.7-17.7c-0.3,0-0.5,0-0.8,0c-0.4,2.5-0.7,5-0.9,7.8c-0.1,0.7-0.6,1.3-1.3,1.5l-5.9,1.4   c-0.1,0-0.3,0-0.4,0c-0.8,0-1.4-0.5-1.6-1.3c0-0.1-0.2-1-0.5-2.4c-2.2,3.7-3.3,8.5-2.8,13.6c0.9,8.9,6.4,15.9,13,17.4V88   c0,0.6,0.5,1.1,1.1,1.1V95h1.8v-5.8c0.6,0,1.1-0.5,1.1-1.1v-3.2C40.8,84,46.7,74.8,45.6,64.2z M26.9,76.3c-4.1,0-7.9-3.7-8.6-8.6   c-0.9-5.4,2.1-10.4,6.6-11.1c0.4-0.1,0.7-0.1,1.1-0.1c4.1,0,7.9,3.7,8.6,8.6c0.9,5.4-2.1,10.4-6.6,11.1   C27.6,76.3,27.3,76.3,26.9,76.3z"/><path d="M26.4,54.1C27,48,27.9,42.9,29,38.5c0.1-0.4-0.1-0.9-0.6-1l-1.2-0.4l1.3-4.2l0.5,0.1c0.2,0,0.3,0.1,0.5,0.1   c0.8,0,1.5-0.4,1.8-1.2c5.8-13.1,15.2-17.1,21-18.7c2.9-0.8,5.7-1.1,8.2-1.1c10.5,0,17.5,5.3,17.5,5.3c-3.4-5-7.7-8.1-11.8-10   C62.3,5.8,57.6,5,53,5c-4.9,0-9.8,0.9-13.9,2.6C28.7,12,23.3,20.8,20.8,28.9c-0.3,1,0.2,2.1,1.2,2.4l-0.9,4.2l-0.9-0.2   c-0.1,0-0.1,0-0.2,0c-0.4,0-0.8,0.3-0.8,0.7c-1.1,10.5,1.2,19.4,1.2,19.4L26.4,54.1z"/><path d="M77.9,56c-0.9-9-7-16.1-13.7-16.1c-0.3,0-0.7,0-1,0.1c-7.1,0.7-12.1,9.2-11.1,18.8c0.9,9,7,16.1,13.7,16.1   c0.3,0,0.7,0,1-0.1C74,74,78.9,65.6,77.9,56z M66.1,64.6c-2.4,0.3-4.7-2.6-5.3-6.6s0.9-7.5,3.3-7.8c2.4-0.3,4.7,2.6,5.3,6.6   C69.9,60.7,68.4,64.2,66.1,64.6z"/><path d="M36.1,46.2c2,1,3.9,2.4,5.5,4.2c3.2,3.6,5.2,8.4,5.7,13.6c0.9,8.9-2.9,16.9-8.8,20.5c16.5-2.8,14.2-23.9,8.4-32.7   C43.5,46.7,39.3,45.9,36.1,46.2z"/><path d="M71,23.7c0.2,0.7,0.7,1.1,1.4,1.1c0.1,0,0.2,0,0.3,0l1-0.2l0.6,3.3l-1.5,0.3c-0.6,0.1-1.1,0.7-1.1,1.3   c0,2.9-0.3,5.3-0.7,7.1c3.3,0.5,6.3,2.2,8.8,4.7c1.2-5.1,1.4-9.3,1.1-12.5c0-0.7-0.6-1.2-1.3-1.2c-0.1,0-0.2,0-0.2,0l-0.6,0.1   l-0.6-3.3l0.4-0.1c0.9-0.2,1.4-1.1,1.1-1.9c-0.7-2-1.4-2.9-1.4-2.9c-3.6-3.4-11.9-5.1-11.9-5.1C68.8,17.3,70.2,20.5,71,23.7z"/><path d="M84.5,55.4c-1-9.7-7.8-17.3-15.5-17.3c-0.4,0-0.8,0-1.2,0.1c-0.4,0-0.9,0.1-1.3,0.2c6.7,1.3,12.3,8.5,13.2,17.4   c1,9.3-3.3,17.6-9.8,20c0.2,0,0.4,0,0.6,0c0.4,0,0.8,0,1.2-0.1c3.9-0.4,7.4-2.7,9.8-6.5C83.9,65.4,85,60.5,84.5,55.4z"/></g><text x="0" y="115" fill="#000000" font-size="5px" font-weight="bold" font-family="'Helvetica Neue', Helvetica, Arial-Unicode, Arial, Sans-serif">Created by parkjisun</text><text x="0" y="120" fill="#000000" font-size="5px" font-weight="bold" font-family="'Helvetica Neue', Helvetica, Arial-Unicode, Arial, Sans-serif">from the Noun Project</text></svg>