<svg xmlns="http://www.w3.org/2000/svg" xmlns:xlink="http://www.w3.org/1999/xlink" version="1.1" x="0px" y="0px" viewBox="0 0 100 125" enable-background="new 0 0 100 100" xml:space="preserve"><g><path d="M83.3,14L63,5.3C62.5,5.1,62,5,61.5,5L17.9,6.6C16,6.7,14.6,8.2,14.6,10v80.2c0,1.9,1.5,3.4,3.3,3.4L63.1,95   c0.3,0,0.6,0,1-0.1l18.8-4.5c1.5-0.4,2.6-1.8,2.6-3.3V17.1C85.4,15.8,84.6,14.5,83.3,14z M37.4,15.4c6.9,0,12.5,5.6,12.5,12.5   s-5.6,12.5-12.5,12.5s-12.5-5.6-12.5-12.5S30.5,15.4,37.4,15.4z M20.9,11.7c1,0,1.9,0.8,1.9,1.9s-0.8,1.9-1.9,1.9   c-1,0-1.9-0.8-1.9-1.9S19.9,11.7,20.9,11.7z M20.9,89.4c-1,0-1.9-0.8-1.9-1.9s0.8-1.9,1.9-1.9c1,0,1.9,0.8,1.9,1.9   S21.9,89.4,20.9,89.4z M37.4,80c-9.3,0-16.8-7.5-16.8-16.8c0-9.3,7.5-16.8,16.8-16.8s16.8,7.5,16.8,16.8C54.2,72.5,46.7,80,37.4,80   z M57.1,90.5c-1,0-1.9-0.8-1.9-1.9s0.8-1.9,1.9-1.9c1,0,1.9,0.8,1.9,1.9S58.1,90.5,57.1,90.5z M57.1,13.5c-1,0-1.9-0.8-1.9-1.9   s0.8-1.9,1.9-1.9c1,0,1.9,0.8,1.9,1.9S58.1,13.5,57.1,13.5z"/><path d="M37.4,36.8c4.9,0,8.8-4,8.8-8.8c0-4.9-4-8.8-8.8-8.8s-8.8,4-8.8,8.8C28.6,32.8,32.5,36.8,37.4,36.8z M37.4,21.2   c3.7,0,6.7,3,6.7,6.7c0,3.7-3,6.7-6.7,6.7s-6.7-3-6.7-6.7C30.7,24.2,33.7,21.2,37.4,21.2z"/><path d="M37.4,49.7c-7.4,0-13.5,6-13.5,13.5s6,13.5,13.5,13.5c7.4,0,13.5-6,13.5-13.5S44.8,49.7,37.4,49.7z M37.4,74.6   c-6.3,0-11.4-5.1-11.4-11.4s5.1-11.4,11.4-11.4c6.3,0,11.4,5.1,11.4,11.4S43.7,74.6,37.4,74.6z"/><circle cx="37.4" cy="63.2" r="4.3"/><circle cx="37.4" cy="27.9" r="2.8"/></g><text x="0" y="115" fill="#000000" font-size="5px" font-weight="bold" font-family="'Helvetica Neue', Helvetica, Arial-Unicode, Arial, Sans-serif">Created by parkjisun</text><text x="0" y="120" fill="#000000" font-size="5px" font-weight="bold" font-family="'Helvetica Neue', Helvetica, Arial-Unicode, Arial, Sans-serif">from the Noun Project</text></svg>