<svg xmlns="http://www.w3.org/2000/svg" xmlns:xlink="http://www.w3.org/1999/xlink" version="1.1" x="0px" y="0px" viewBox="0 0 100 125" enable-background="new 0 0 100 100" xml:space="preserve"><g><path d="M14,19.1l4.3,1c0,0,0-1.5,1.4-3.1c0.7-0.7,1.2-1.6,1.4-2.5l0.2-0.9c0.1-0.6-0.3-1.2-0.9-1.4l-4.8-1.1   c-0.6-0.1-1.2,0.2-1.4,0.8l0,0.1c-0.3,1.1-0.3,2.3,0.1,3.4C14.4,16.2,14.5,17.4,14,19.1z"/><path d="M43.7,57.3c1.1,0,2.1-0.9,2.1-2.1c0-1.1-0.9-2.1-2.1-2.1H33c0.2,0.6,0.4,1.3,0.4,2.1s-0.1,1.4-0.4,2.1H43.7z"/><path d="M26.5,56c0.4,0,0.8-0.4,0.8-0.8c0-0.4-0.4-0.8-0.8-0.8h-7c-0.4,0-0.8,0.4-0.8,0.8c0,0.4,0.4,0.8,0.8,0.8H26.5z"/><path d="M29,55.2c0,1.3-1.1,2.4-2.4,2.4h-2.9c0.8,1.2,2.1,2,3.7,2c2.4,0,4.4-2,4.4-4.4c0-2.4-2-4.4-4.4-4.4c-1.5,0-2.9,0.8-3.6,2   h2.9C27.9,52.8,29,53.9,29,55.2z"/><rect x="38.3" y="58.9" width="4.4" height="5.5"/><path d="M27.6,68c0-0.4-0.4-0.8-0.8-0.8h-7c-0.4,0-0.8,0.4-0.8,0.8c0,0.4,0.4,0.8,0.8,0.8h7C27.3,68.8,27.6,68.5,27.6,68z"/><path d="M44,66H33.2c0.2,0.6,0.4,1.3,0.4,2.1c0,0.7-0.1,1.4-0.4,2.1H44c1.1,0,2.1-0.9,2.1-2.1S45.1,66,44,66z"/><path d="M22.3,58.3v7.1c0.8-1.7,2.5-3,4.4-3.3v-1C24.8,60.9,23.2,59.8,22.3,58.3z"/><path d="M80.9,44.2c-9.9-7.1-19.8-10.2-22.2-6.8c-0.7,0.9-0.7,2.3-0.1,3.9c0.4,1.1,5.2,14.8,1.2,23.4c0.1-1.1,0.2-2.2,0.2-3.3   c0-15.2-12.3-27.5-27.5-27.5c-7.2,0-13.7,2.8-18.6,7.3l3.9-18.7l-4.4-0.9L7.5,49.9C5.9,53.4,5,57.3,5,61.4   c0,15.2,12.3,27.5,27.5,27.5c1.7,0,3.5-0.2,5.1-0.5c3.1-0.3,11.6-2.6,30.8-15.9c0,0,10.9-7.3,22.4-8.1c1.7,0,2.9-0.4,3.6-1.3   C96.9,59.8,90.8,51.3,80.9,44.2z M42.8,79.9v-8.2h-4.4v10.1c-1.8,0.5-3.8,0.8-5.8,0.8c-2,0-3.9-0.3-5.8-0.8v-7.9   c-2-0.3-3.6-1.5-4.4-3.3v9.3c-6.5-3.6-10.9-10.6-10.9-18.5s4.4-14.9,10.9-18.5v9.3c0.9-1.6,2.6-2.7,4.4-2.9V41   c1.8-0.5,3.8-0.8,5.8-0.8c2,0,4,0.3,5.8,0.8v10.5h4.4v-8.7c6.5,3.6,10.9,10.6,10.9,18.5S49.3,76.3,42.8,79.9z"/><path d="M27.6,63.7c-1.5,0-2.9,0.8-3.7,2h2.9c1.3,0,2.4,1.1,2.4,2.4c0,1.3-1.1,2.4-2.4,2.4H24c0.8,1.2,2.1,2,3.7,2   c2.4,0,4.4-2,4.4-4.4C32,65.6,30,63.7,27.6,63.7z"/></g><text x="0" y="115" fill="#000000" font-size="5px" font-weight="bold" font-family="'Helvetica Neue', Helvetica, Arial-Unicode, Arial, Sans-serif">Created by parkjisun</text><text x="0" y="120" fill="#000000" font-size="5px" font-weight="bold" font-family="'Helvetica Neue', Helvetica, Arial-Unicode, Arial, Sans-serif">from the Noun Project</text></svg>