<svg xmlns="http://www.w3.org/2000/svg" xmlns:xlink="http://www.w3.org/1999/xlink" version="1.1" x="0px" y="0px" viewBox="0 0 100 125" enable-background="new 0 0 100 100" xml:space="preserve"><g><path d="M43,84l-3.1-1.7l37.3-45.9l-4.7,0.8L37,80.8l-2.5-1.4L50,60.3l-2.4-2L31.7,77.9l-1.9-1c-0.6-0.3-1.3-0.3-1.8,0.1   c-1.1,0.7-1,2.4,0.1,3.1l13.2,7.1c0.7,0.4,1.6,0.2,2.1-0.3C44.2,85.9,44,84.5,43,84z"/><path d="M76.8,74.6l-3.4-1.1l-14.2-12l-2,2.4l8.4,7.1l-3.1-1c-0.6-0.2-1.3,0-1.8,0.4c-1,0.9-0.6,2.6,0.7,3L75.7,78   c0.8,0.2,1.6-0.1,2-0.7C78.3,76.3,77.9,75,76.8,74.6z"/><path d="M28.3,23.9c0.2,0.4,0.6,0.6,1,0.6c0.1,0,0.1,0,0.2,0l28.8-4c0.4-0.1,0.8-0.4,0.9-0.8l0.8-4.4c0.1-0.7-0.3-1.3-1-1.4   c-1.9-0.4-4.8-1.2-9.6-1.2c-1.9,0-4,0.1-6.5,0.4c-11.7,1.4-13.8,3-16.2,3.9c-0.8,0.3-1.2,1.2-0.8,2L28.3,23.9z"/><path d="M94.2,26.3l-22.1-8.4c-0.7-0.3-1.4-0.3-2.2-0.2l-9.1,1.3L60.7,20c-0.2,1.1-1.1,2-2.2,2.1l-28.8,4c-0.1,0-0.2,0-0.4,0   c-1,0-1.9-0.6-2.4-1.5l-0.5-1L6,26.5c-0.6,0.1-1,0.6-1,1.2v5.8c0,1.2,0.7,2.3,1.7,2.9L19,43.9c0.7,0.4,1.6,0.6,2.5,0.4l72.7-12.9   c0.5-0.1,0.9-0.5,0.9-1v-3C95,27,94.7,26.5,94.2,26.3z M35.3,37.7L27.5,39v-1.3c0-1-0.6-1.8-1.5-2.1l-8.8-3.2l5.5-0.7l0.4,0.2   c0.1,0.1,0.2,0.2,0.3,0.2l1.4,0.5l4.9,2.1l2.7,1.1l0.5-0.1l2.3,0.9V37.7z M43.9,36.3l-6.7,1.1v-1.5c0-0.4-0.2-0.7-0.6-0.9l-0.9-0.3   v-1l-7.3-2.7l3.9-0.5l11.7,4.4V36.3z M52.8,34.8l-7,1.2v-1.8c0-0.4-0.2-0.7-0.6-0.9l-9-3.4l4.4-0.6l6.4,2.6l2.7,1.1l0.9-0.2   l2.3,0.9V34.8z M54.7,34.5v-1.6c0-0.4-0.2-0.7-0.6-0.9l-1.3-0.5v-0.8l-6.2-2.3l3.6-0.5l5,2l2.7,1.1l0.8-0.2l2.1,0.8v1.9   c0,0,0,0,0,0L54.7,34.5z M62.7,33.2v-2.2c0-0.4-0.2-0.7-0.6-0.9l-1-0.4v-0.9l-4.7-1.8l3.7-0.5l9.1,3.5v1.9c0,0.1,0,0.1,0,0.2   L62.7,33.2z M71.1,31.8v-2.4c0-0.4-0.2-0.7-0.6-0.9L64,26l4-0.5l4.1,1.6l2.7,1.1l1-0.3l1.7,0.6v1.9c0,0.1,0,0.2,0,0.2L71.1,31.8z    M84.4,29.6l-5,0.8v-2.4c0-0.4-0.2-0.7-0.6-0.9L78,26.8v-0.7l-3.8-1.4l3.6-0.5l6.1,1.9c0.3,0.1,0.5,0.3,0.5,0.6V29.6z"/><polygon points="68.1,37.8 63.4,38.6 51.9,52.9 54.3,54.9  "/><polygon points="33.9,44.1 51.9,59.5 53.9,57 37.9,43.5  "/></g><text x="0" y="115" fill="#000000" font-size="5px" font-weight="bold" font-family="'Helvetica Neue', Helvetica, Arial-Unicode, Arial, Sans-serif">Created by parkjisun</text><text x="0" y="120" fill="#000000" font-size="5px" font-weight="bold" font-family="'Helvetica Neue', Helvetica, Arial-Unicode, Arial, Sans-serif">from the Noun Project</text></svg>