<svg xmlns="http://www.w3.org/2000/svg" xmlns:xlink="http://www.w3.org/1999/xlink" version="1.1" x="0px" y="0px" viewBox="0 0 32 40" style="enable-background:new 0 0 32 32;" xml:space="preserve"><g><path d="M31.157,0.351c-0.808-0.582-1.943-0.411-2.647,0.294L26.586,2.57c-0.348,0.348-0.537,0.792-0.573,1.247   c-0.036,0.47-0.182,0.924-0.515,1.257l-6.258,6.261c-0.496,0.496-1.114,0.854-1.792,1.036L0.741,16.855   c-0.346,0.093-0.615,0.362-0.707,0.707c-0.093,0.345,0.006,0.714,0.259,0.966l13.171,13.178C13.653,31.897,13.909,32,14.171,32   c0.086,0,0.173-0.011,0.259-0.034c0.345-0.092,0.614-0.362,0.707-0.707l4.482-16.716c0.182-0.678,0.539-1.296,1.035-1.793   l6.258-6.261c0.333-0.333,0.787-0.479,1.256-0.516c0.455-0.035,0.898-0.225,1.246-0.573l2-2.001   C32.273,2.54,32.187,1.094,31.157,0.351z M12.707,22.702c-0.195,0.195-0.451,0.293-0.707,0.293s-0.512-0.098-0.707-0.293l-2-2.001   c-0.391-0.391-0.391-1.024,0-1.415s1.023-0.391,1.414,0l2,2.001C13.098,21.678,13.098,22.311,12.707,22.702z M14,18.993   c-0.552,0-1-0.448-1-1.001c0-0.553,0.448-1.001,1-1.001c0.552,0,1,0.448,1,1.001C15,18.545,14.552,18.993,14,18.993z"/></g><text x="0" y="47" fill="#000000" font-size="5px" font-weight="bold" font-family="'Helvetica Neue', Helvetica, Arial-Unicode, Arial, Sans-serif">Created by Dmitry Mirolyubov</text><text x="0" y="52" fill="#000000" font-size="5px" font-weight="bold" font-family="'Helvetica Neue', Helvetica, Arial-Unicode, Arial, Sans-serif">from the Noun Project</text></svg>