<svg xmlns="http://www.w3.org/2000/svg" xmlns:xlink="http://www.w3.org/1999/xlink" version="1.1" x="0px" y="0px" viewBox="0 0 100 125" enable-background="new 0 0 100 100" xml:space="preserve"><g><ellipse cx="55.9" cy="58.3" rx="1.1" ry="0.8"/><path d="M70.1,54.1l4.8,2.3c0,0,1.6-3.1,1.6-7.3v-5.5c0-0.7,0.7-1.2,1.3-1c0,0,0,0,0,0c0.6,0.2,1.2,0,1.6-0.5v0   c0.5-0.6,0.4-1.6-0.2-2c-0.5-0.4-1.1-0.7-1.9-0.8c-1.3-0.1-2.5,0.7-2.9,2c-0.2,0.7-0.5,1.8-0.7,3.3C73,48.8,71.7,53.5,70.1,54.1z"/><path d="M63.1,57.7c0.1,0.3,0.4,0.3,0.5,0l0.5-2.1c1.4-0.3,2.4-1.6,2.4-3.1c0-1.7-1.4-3.2-3.2-3.2c-1.7,0-3.2,1.4-3.2,3.2   c0,1.5,1,2.7,2.4,3.1L63.1,57.7z"/><path d="M34.5,10.7c-4.5,0-9.8,7.2-12,16.5c-2.4,10-0.5,19.4,4.1,20.5c0.3,0.1,0.6,0.1,0.9,0.1c4.5,0,9.8-7.2,12-16.5   c1.2-5,1.4-9.9,0.5-13.9c-0.8-3.7-2.5-6.1-4.7-6.6C35.1,10.7,34.8,10.7,34.5,10.7z"/><path d="M35.8,9.2c0.9,0.2,1.8,0.7,2.5,1.3c0-1.8-0.3-5.2-2.6-5.6c-0.1,0-0.3,0-0.4,0c-2.3,0-3.6,3.5-4,4.9   c1.1-0.5,2.1-0.8,3.2-0.8C34.9,9.1,35.4,9.1,35.8,9.2z"/><path d="M31.4,48.5c0.2,0.5,1,2.5,2.4,2.5c0.5,0,1.2-0.3,1.9-1c2.4-2.3,2.4-6.2,2.2-7.7c0.3,0.1,0.6,0.2,1,0.2c1,0,2.4-0.6,3.5-3.2   c1.4-3.3,0.7-5.9,0.1-7.3c1.1-0.9,2.7-2.7,2.8-6.2c0.2-4.5-2.3-5.2-3.1-5.4c0.6-1,2.6-4.9,1.1-8.3c-0.6-1.4-1.5-1.9-2.3-1.9   c-0.9,0-1.7,0.5-2.2,0.9c1.3,1.4,2.2,3.4,2.8,6c0.9,4.2,0.7,9.4-0.5,14.6c-2.5,10.3-8.2,17.7-13.6,17.7c-0.4,0-0.9-0.1-1.3-0.2   c-1.1-0.3-2.1-0.8-2.9-1.7c-0.1,1.3,0.1,5.3,2.8,5.9c0.2,0,0.3,0.1,0.5,0.1c2.4,0,4.3-3.8,4.7-5L31.4,48.5z"/><path d="M20.9,26.8c1.9-8.1,5.9-14.5,10.2-16.8c-0.4-0.9-1.3-2.4-2.6-2.4c-0.5,0-1.1,0.2-1.8,0.7c-3.2,2.6-2.5,8.2-2.5,8.2   c-0.1,0-0.5-0.2-1-0.2c-1.1,0-2.8,0.6-4,3.8c-1.4,3.7-0.2,6.3,0.5,7.3c-1,0.8-3.1,3.1-3.1,7.1c0,3.5,1.6,4.4,2.7,4.5   c-0.7,1.7-1.7,4.9-0.3,7.4c0.7,1.3,1.5,1.7,2.2,1.7c0.8,0,1.5-0.5,2-1C19.8,43.8,18.7,35.8,20.9,26.8z"/><path d="M75.2,75.9c0.6-0.2,1-0.8,1.1-1.5l0.4-7.6l-24.3,8.1c-0.8,0.2-1.6,0.1-2.2-0.3L34.8,63.3l0.4,7.8c0,0.9,0.5,1.8,1.2,2.4   l13.8,11.3c0.6,0.5,1.4,0.6,2.1,0.3l14.9-6v-3.6l-1.7-0.9c-0.5-0.3-0.8-0.7-1-1.2c-0.2-0.5-0.1-1.1,0.2-1.6   c0.4-0.7,1.1-1.1,1.8-1.1h0c0.3,0,0.7,0.1,1,0.2l2.8,1.5c0.7,0.4,1.1,1.1,1.1,1.8v3.2L75.2,75.9z"/><path d="M70.1,82.9v-8.6c0-0.3-0.1-0.5-0.4-0.6l-2.8-1.5c-0.1-0.1-0.2-0.1-0.3-0.1c-0.3,0-0.5,0.1-0.6,0.4c-0.2,0.4-0.1,0.8,0.3,1   l2.4,1.3v8.6c0,0.3,0.2,0.5,0.4,0.6c1.9,3.1,4.2,4.8,5.8,4.8c0.6,0,1.1-0.2,1.4-0.7C78.2,85.3,70.1,82.9,70.1,82.9z"/><path d="M82.5,76.9c-1.5-1.7-4.2-3.5-4.2-3.5l-0.1,1.8c-0.1,1.1-0.8,2.1-1.8,2.5l-4.8,2v2.3c1.3,0.4,3.2,1.2,4.6,2.3l6.5-2.9   c0.6-0.2,0.9-0.8,0.9-1.4v-0.5C83.4,78.5,83.1,77.6,82.5,76.9z"/><path d="M67.3,83.6c0-0.1,0-0.2,0-0.3v-2.1l-15.1,6.2c-0.7,0.3-1.5,0.2-2.1-0.3L34.8,74.8c-0.8-0.7-1.3-1.6-1.4-2.7l-0.1-1.4   c-1,0.6-2.2,1.9-2.9,2.7c-0.4,0.5-0.7,1.1-0.7,1.8v0.5c0,0.6,0.3,1.2,0.7,1.6l18.5,16.7c1,0.9,2.5,1.1,3.7,0.6l17-7.6   c-0.6-0.6-1.1-1.4-1.6-2.2C67.6,84.6,67.4,84.1,67.3,83.6z"/><path d="M79.2,63v-1.5c0-0.9-0.5-1.6-1.3-2l-10.6-5.2c-0.3,0.6-0.7,1.2-1.1,1.6c1.2,0.8,1.9,1.7,1.9,2.8c0,2.8-5.5,5.1-12.4,5.1   c-6.8,0-12.4-2.3-12.4-5.1c0-2.8,5.5-5.1,12.4-5.1c1.1,0,2.1,0.1,3.1,0.2c-0.1-0.4-0.1-0.7-0.1-1.1c0-0.8,0.2-1.5,0.5-2.1   c-0.2,0-0.5,0-0.7,0l-24.8,5c-0.8,0.2-1.4,0.9-1.4,1.7v1.1c0,0.8,0.4,1.5,1,2l16.9,12.1c0.7,0.5,1.6,0.6,2.5,0.4l25.5-8.5   C78.9,64,79.2,63.6,79.2,63z"/><path d="M47,25.8c-0.1,3.3-1.4,5.4-2.6,6.6c0.5,1.7,0.8,4.4-0.5,7.5c-0.5,1.2-1.1,2.1-1.7,2.7c11.9-2.9,22.5,0,25.8,1.1   c1,0.3,1.6,1.5,1.1,2.5c-0.6,1.2-1.9,2.4-2.8,3c0.3,0.3,0.6,0.7,0.8,1.1c3.2-1.8,5.9-4.7,6.3-7.5c0.3-1.7-0.7-2.9-1.7-3.6   c-0.6-0.5-1.3-0.8-2.1-1.1c-10.3-3.3-17.9-9.3-22.8-14.4C47,24.4,47,25,47,25.8z"/></g><text x="0" y="115" fill="#000000" font-size="5px" font-weight="bold" font-family="'Helvetica Neue', Helvetica, Arial-Unicode, Arial, Sans-serif">Created by parkjisun</text><text x="0" y="120" fill="#000000" font-size="5px" font-weight="bold" font-family="'Helvetica Neue', Helvetica, Arial-Unicode, Arial, Sans-serif">from the Noun Project</text></svg>