<svg xmlns="http://www.w3.org/2000/svg" xmlns:xlink="http://www.w3.org/1999/xlink" version="1.1" x="0px" y="0px" viewBox="0 0 100 125" enable-background="new 0 0 100 100" xml:space="preserve"><g><path fill="#000000" d="M25.7,48.7h0.4c0.3,3.4,1.4,9.1,5.5,13.6c3.2,3.4,7.5,5.5,13,6.2V79h9.4V68.4c5.3-0.8,9.6-2.8,12.8-6.2   c4.2-4.5,5.4-10.1,5.8-13.6h0.5c0.4,0,0.7-0.3,0.7-0.7v-4.5c0-0.4-0.3-0.7-0.7-0.7h-3.1c-0.4,0-0.7,0.3-0.7,0.7V48   c0,0.4,0.3,0.7,0.7,0.7H70c-0.3,3.1-1.5,8-5.1,11.9c-3.2,3.3-7.6,5.3-13.3,5.7v-4.7c5.2-0.6,8.7-2.8,11-5.6h-4.9   c-0.4,0-0.6-0.3-0.6-0.6v-1.4c0-0.4,0.3-0.6,0.6-0.6h6.8c0.5-0.9,0.9-1.8,1.2-2.7h-8c-0.4,0-0.6-0.3-0.6-0.6v-1.4   c0-0.4,0.3-0.6,0.6-0.6h8.9c0.4-1.5,0.6-2.8,0.7-3.7c0.1-0.7-0.5-1.4-1.3-1.4H32.7c-0.7,0-1.3,0.6-1.3,1.3c0,0.9,0.2,2.3,0.5,3.8h9   c0.4,0,0.6,0.3,0.6,0.6V50c0,0.4-0.3,0.6-0.6,0.6h-8.3c0.3,0.9,0.7,1.8,1.1,2.7H41c0.4,0,0.6,0.3,0.6,0.6v1.4   c0,0.4-0.3,0.6-0.6,0.6h-5.4c2.3,2.9,5.9,5.2,11.5,5.7v4.7c-5.9-0.4-10.5-2.3-13.6-5.7c-3.6-3.8-4.6-8.8-4.9-11.9h0.3   c0.4,0,0.7-0.3,0.7-0.7v-4.5c0-0.4-0.3-0.7-0.7-0.7h-3.1c-0.4,0-0.7,0.3-0.7,0.7V48C25,48.4,25.3,48.7,25.7,48.7z"/><path fill="#000000" d="M74.7,86.3h-4.3c-4.8,0-9.5-1.2-13.8-3.6l-2.7-1.5h-9.4L42,82.7c-4.1,2.4-8.7,3.6-13.4,3.6h-3.4   c-0.8,0-1.5,0.7-1.5,1.5v5.7c0,0.8,0.7,1.5,1.5,1.5h49.5c0.8,0,1.5-0.7,1.5-1.5v-5.7C76.3,86.9,75.6,86.3,74.7,86.3z"/><path fill="#000000" d="M65.3,21c0-8.9-7.2-16-16-16h0c-8.9,0-16,7.2-16,16V41h32.1V21z M53.4,16.4c1.3,0,2.3,1,2.3,2.3   c0,1.3-1,2.3-2.3,2.3s-2.3-1-2.3-2.3C51.1,17.4,52.1,16.4,53.4,16.4z M51.6,23.6c0,1.3-1,2.3-2.3,2.3s-2.3-1-2.3-2.3s1-2.3,2.3-2.3   S51.6,22.4,51.6,23.6z M49.3,11.3c1.3,0,2.3,1,2.3,2.3s-1,2.3-2.3,2.3s-2.3-1-2.3-2.3S48,11.3,49.3,11.3z M45.2,16.4   c1.3,0,2.3,1,2.3,2.3c0,1.3-1,2.3-2.3,2.3c-1.3,0-2.3-1-2.3-2.3C42.9,17.4,44,16.4,45.2,16.4z M39.3,23.6c0-1.3,1-2.3,2.3-2.3   c1.3,0,2.3,1,2.3,2.3s-1,2.3-2.3,2.3C40.3,25.9,39.3,24.9,39.3,23.6z M45.2,31c-1.3,0-2.3-1-2.3-2.3s1-2.3,2.3-2.3s2.3,1,2.3,2.3   S46.5,31,45.2,31z M49.3,36.1c-1.3,0-2.3-1-2.3-2.3c0-1.3,1-2.3,2.3-2.3s2.3,1,2.3,2.3C51.6,35,50.5,36.1,49.3,36.1z M53.4,31   c-1.3,0-2.3-1-2.3-2.3s1-2.3,2.3-2.3s2.3,1,2.3,2.3S54.6,31,53.4,31z M57.6,25.9c-1.3,0-2.3-1-2.3-2.3s1-2.3,2.3-2.3s2.3,1,2.3,2.3   S58.9,25.9,57.6,25.9z"/></g><text x="0" y="115" fill="#000000" font-size="5px" font-weight="bold" font-family="'Helvetica Neue', Helvetica, Arial-Unicode, Arial, Sans-serif">Created by parkjisun</text><text x="0" y="120" fill="#000000" font-size="5px" font-weight="bold" font-family="'Helvetica Neue', Helvetica, Arial-Unicode, Arial, Sans-serif">from the Noun Project</text></svg>