<svg xmlns="http://www.w3.org/2000/svg" xmlns:xlink="http://www.w3.org/1999/xlink" version="1.1" x="0px" y="0px" viewBox="0 0 20 40" style="enable-background:new 0 0 20 32;" xml:space="preserve"><g><g><path d="M20,2c0-1.105-0.895-2-2-2H2C0.895,0,0,0.895,0,2v28c0,1.105,0.895,2,2,2h16c1.105,0,2-0.895,2-2V2z M10,28    c-2.761,0-5-2.239-5-5s2.239-5,5-5s5,2.239,5,5S12.761,28,10,28z M18,13c0,0.552-0.448,1-1,1H3c-0.552,0-1-0.448-1-1V3    c0-0.552,0.448-1,1-1h14c0.552,0,1,0.448,1,1V13z"/><circle cx="10" cy="23" r="2"/></g></g><text x="0" y="47" fill="#000000" font-size="5px" font-weight="bold" font-family="'Helvetica Neue', Helvetica, Arial-Unicode, Arial, Sans-serif">Created by Dmitry Mirolyubov</text><text x="0" y="52" fill="#000000" font-size="5px" font-weight="bold" font-family="'Helvetica Neue', Helvetica, Arial-Unicode, Arial, Sans-serif">from the Noun Project</text></svg>