<svg xmlns="http://www.w3.org/2000/svg" xmlns:xlink="http://www.w3.org/1999/xlink" version="1.1" x="0px" y="0px" viewBox="0 0 100 125" enable-background="new 0 0 100 100" xml:space="preserve"><g><path d="M20.1,31.5l2.5-6.8c0.4-1,1.4-1.5,2.4-1.3l6.7,1.3l2.5-6.8c0.3-0.9,1.3-1.5,2.2-1.4l5.3,0.7c-0.2-0.3-0.3-0.6-0.5-0.9   c-6.5-11-17.6-14.1-26.8-8.7C5.1,13.1,2.4,24.3,8.9,35.3c0.2,0.4,0.4,0.7,0.7,1.1l1.1-4.5c0.3-1.1,1.3-1.7,2.4-1.6L20.1,31.5z"/><path d="M85.7,7.6c-3-1.8-6.1-2.6-9.3-2.6c-6.6,0-13.1,3.8-17.6,11.3c-0.2,0.3-0.3,0.6-0.5,0.9l5.3-0.7c1-0.1,1.9,0.4,2.2,1.4   l2.5,6.8l6.7-1.3c1-0.2,2,0.4,2.4,1.3l2.5,6.8l7-1.2c1.1-0.2,2.1,0.5,2.4,1.6l1.1,4.5c0.2-0.4,0.5-0.7,0.7-1.1   C97.6,24.3,94.9,13.1,85.7,7.6z"/><path d="M78.9,35.9c-1,0.2-2-0.4-2.3-1.3l-2.5-6.8l-6.7,1.3c-1,0.2-2-0.4-2.4-1.3l-2.5-6.9l-6,0.8C54.6,28,54.9,35.1,56,40.4   c1,4.6,1.3,6.9-0.7,9.9C51.5,56,44.1,66.3,42,69.9c-5.6,9.5-6.7,14.1-9.4,19.5c-0.7,1.4-0.2,3,1.1,3.8l2.3,1.4   c0.5,0.3,1,0.4,1.5,0.4c0.9,0,1.8-0.5,2.4-1.3c3.3-5,7-8.3,12.5-17.7c2.1-3.6,7.6-15.1,10.8-21.2c1.6-3.1,4.7-3.8,8.9-5   c5.1-1.5,10.7-4.7,15.1-9.3l-1.4-5.8L78.9,35.9z"/><path d="M58,69.9c0,0-0.1-0.1-0.1-0.1c-1.6,3.1-2.9,5.8-3.8,7.3c-1,1.7-2,3.3-2.9,4.6c3.6,5.3,6.3,8.2,8.9,12   c0.8,1.3,2.5,1.7,3.9,0.9l2.3-1.4c1.3-0.8,1.8-2.4,1.1-3.8C64.7,84.1,63.7,79.5,58,69.9z"/><path d="M36.9,54.9c1.5,2.8,3.5,6.8,5.4,10.7c1.5-2.3,3.5-5.1,5.5-8.1c0.3-0.4,0.6-0.9,0.9-1.3c-1.5-2.2-2.9-4.2-4-5.9   c-1.9-2.9-1.6-5.3-0.7-9.9c1.1-5.3,1.4-12.4-0.6-18.7l-6-0.8L35,27.8c-0.4,1-1.4,1.5-2.4,1.3l-6.7-1.3l-2.5,6.8   c-0.3,0.9-1.3,1.5-2.3,1.3l-6.8-1.2l-1.4,5.8c4.4,4.6,10.1,7.9,15.1,9.3C32.2,51.1,35.3,51.8,36.9,54.9z"/></g><text x="0" y="115" fill="#000000" font-size="5px" font-weight="bold" font-family="'Helvetica Neue', Helvetica, Arial-Unicode, Arial, Sans-serif">Created by parkjisun</text><text x="0" y="120" fill="#000000" font-size="5px" font-weight="bold" font-family="'Helvetica Neue', Helvetica, Arial-Unicode, Arial, Sans-serif">from the Noun Project</text></svg>