<svg xmlns="http://www.w3.org/2000/svg" xmlns:xlink="http://www.w3.org/1999/xlink" version="1.1" x="0px" y="0px" viewBox="0 0 32 32.5" style="enable-background:new 0 0 32 26;" xml:space="preserve"><g><g><path d="M9.953,11.867c0.168-0.042,0.26-0.228,0.205-0.392l-0.55-1.649L9.396,9.188c-0.042-0.125-0.003-0.272,0.11-0.338h-0.01    C9.792,8.676,10,8.368,10,8c0-0.003-0.002-0.006-0.002-0.01c0.014-0.119,0.108-0.217,0.229-0.242l0.586-0.12l0.001,0.001    l1.79-0.367c0.17-0.035,0.286-0.21,0.237-0.377c-0.184-0.628-0.524-1.188-0.968-1.646c-0.12-0.124-0.327-0.111-0.442,0.018    l-1.153,1.3L9.831,7.063C9.743,7.162,9.597,7.202,9.483,7.137l0.004,0.008C9.341,7.061,9.181,7,9,7S8.659,7.061,8.513,7.144    l0.004-0.008C8.403,7.202,8.257,7.162,8.169,7.063L7.772,6.616l0.001-0.001L6.561,5.247c-0.115-0.13-0.325-0.142-0.445-0.017    C5.663,5.704,5.349,6.278,5.174,6.892C5.127,7.058,5.241,7.231,5.411,7.265l1.703,0.349l0.66,0.135    c0.12,0.025,0.215,0.122,0.229,0.242C8.002,7.994,8,7.997,8,8c0,0.368,0.208,0.676,0.504,0.849h-0.01    c0.114,0.066,0.152,0.214,0.11,0.338L8.415,9.755l-0.001,0l-0.578,1.734c-0.055,0.165,0.039,0.353,0.208,0.394    C8.68,12.037,9.334,12.023,9.953,11.867z"/><path d="M25.873,5.241c-0.12-0.124-0.327-0.111-0.442,0.018l-1.153,1.3l-0.447,0.504c-0.087,0.098-0.234,0.139-0.348,0.074    l0.004,0.008C23.341,7.061,23.181,7,23,7s-0.341,0.061-0.487,0.144l0.004-0.008c-0.114,0.065-0.261,0.025-0.348-0.074    l-0.397-0.448l0.001-0.001l-1.213-1.367c-0.115-0.13-0.325-0.142-0.445-0.017c-0.452,0.474-0.767,1.047-0.941,1.661    c-0.047,0.166,0.067,0.339,0.237,0.374l1.703,0.349l0.66,0.135c0.12,0.025,0.215,0.122,0.229,0.242C22.002,7.994,22,7.997,22,8    c0,0.368,0.208,0.676,0.504,0.849h-0.01c0.114,0.066,0.152,0.214,0.11,0.338l-0.189,0.568l-0.001,0l-0.578,1.734    c-0.055,0.165,0.039,0.353,0.208,0.394c0.636,0.155,1.29,0.14,1.909-0.015c0.168-0.042,0.26-0.228,0.205-0.392l-0.55-1.649    l-0.213-0.639c-0.042-0.125-0.003-0.272,0.11-0.338h-0.01C23.792,8.676,24,8.368,24,8c0-0.003-0.002-0.006-0.002-0.01    c0.014-0.119,0.108-0.217,0.229-0.242l0.586-0.12l0.001,0.001l1.79-0.367c0.17-0.035,0.286-0.21,0.237-0.377    C26.656,6.258,26.317,5.699,25.873,5.241z"/><path d="M30,0H2C0.895,0,0,0.895,0,2v22c0,1.105,0.895,2,2,2h28c1.105,0,2-0.895,2-2V2C32,0.895,31.105,0,30,0z M3,8    c0-3.314,2.686-6,6-6s6,2.686,6,6s-2.686,6-6,6S3,11.314,3,8z M7,21c0,0.552-0.448,1-1,1s-1-0.448-1-1v-2c0-0.552,0.448-1,1-1    s1,0.448,1,1V21z M11,21c0,0.552-0.448,1-1,1s-1-0.448-1-1v-2c0-0.552,0.448-1,1-1s1,0.448,1,1V21z M19,21c0,0.552-0.448,1-1,1h-4    c-0.552,0-1-0.448-1-1v-2c0-0.552,0.448-1,1-1h4c0.552,0,1,0.448,1,1V21z M23,21c0,0.552-0.448,1-1,1s-1-0.448-1-1v-2    c0-0.552,0.448-1,1-1s1,0.448,1,1V21z M27,21c0,0.552-0.448,1-1,1s-1-0.448-1-1v-2c0-0.552,0.448-1,1-1s1,0.448,1,1V21z M23,14    c-3.314,0-6-2.686-6-6s2.686-6,6-6s6,2.686,6,6S26.314,14,23,14z"/></g></g><text x="0" y="41" fill="#000000" font-size="5px" font-weight="bold" font-family="'Helvetica Neue', Helvetica, Arial-Unicode, Arial, Sans-serif">Created by Dmitry Mirolyubov</text><text x="0" y="46" fill="#000000" font-size="5px" font-weight="bold" font-family="'Helvetica Neue', Helvetica, Arial-Unicode, Arial, Sans-serif">from the Noun Project</text></svg>