<svg xmlns="http://www.w3.org/2000/svg" xmlns:xlink="http://www.w3.org/1999/xlink" version="1.1" x="0px" y="0px" viewBox="0 0 100 125" enable-background="new 0 0 100 100" xml:space="preserve"><g><path d="M31.9,29.8H25c0.7,2.1,0.8,4.6,0.9,6.1c0,0.8,0,31.7,0,31.7h5.2c0-0.5,0-31.4,0-31.8C31.2,32.2,31.9,29.8,31.9,29.8z"/><path d="M25.2,85.8h7.1c0.4,0,0.8-0.4,0.7-0.8l-1.9-15.3h-5.2L24.4,85C24.4,85.4,24.7,85.8,25.2,85.8z"/><path d="M23.9,16.9l1,10.7h7.1l1-10.9c0-1.4,0.2-2.7,0.5-4.1l0.5-2.2l-0.3-2.1C33.5,6.4,31.9,5,30,5h-3.1c-1.9,0-3.5,1.4-3.7,3.3   l-0.3,2.4l0.4,1.4C23.6,13.7,23.8,15.3,23.9,16.9z"/><path d="M79.1,25.8c-4.7-5.4-13.7,1.8-17.5,1.1c-2.7-0.5-5.1-6.7-5.1-6.7C48.8,4.4,35.1,6.5,35.1,6.5l0,0c0.2,0.5,0.4,1,0.5,1.6   l0.3,2.1c0,0.2,0,0.4,0,0.7L35.2,13c-0.3,1.2-0.4,2.4-0.5,3.7c0,0,0,0.1,0,0.1l-0.4,4.7c0.4-0.4,0.9-0.9,1.5-1.2v66.7l-0.2,0.3   H22.2h-2c-0.4,0-0.7,0.3-0.7,0.7v1c0,0.4,0.3,0.7,0.7,0.7h0.3v2.9h-0.3c-0.4,0-0.7,0.3-0.7,0.7v1c0,0.4,0.3,0.7,0.7,0.7h2h27h2   c0.4,0,0.7-0.3,0.7-0.7v-1c0-0.4-0.3-0.7-0.7-0.7h-0.3v-2.9h0.3c0.4,0,0.7-0.3,0.7-0.7v-1c0-0.4-0.3-0.7-0.7-0.7h-2H49l26.1-44.6   C75.1,42.6,83.8,31.2,79.1,25.8z M36.4,13.3c0-0.4,0.4-0.8,0.8-0.8c0.4,0,0.8,0.4,0.8,0.8c0,0.4-0.4,0.8-0.8,0.8   C36.8,14.1,36.4,13.7,36.4,13.3z M41,79.9l-3.6,4.9V19.5c0.8-0.3,1.6-0.5,2.6-0.5c0.3,0,0.6,0,1,0V79.9z M41.8,14.9   c-0.4,0-0.8-0.4-0.8-0.8c0-0.4,0.4-0.8,0.8-0.8s0.8,0.4,0.8,0.8C42.6,14.5,42.2,14.9,41.8,14.9z M46.1,72.8l-3.6,4.9V19.4   c1.2,0.4,2.4,1.2,3.6,2.2V72.8z M46.9,17.1c-0.4,0-0.8-0.4-0.8-0.8c0-0.4,0.4-0.8,0.8-0.8s0.8,0.4,0.8,0.8   C47.7,16.7,47.3,17.1,46.9,17.1z M51.2,65.8l-3.6,4.9V23c1.2,1.2,2.3,2.4,3.6,3.7V65.8z M52,21.7c-0.4,0-0.8-0.4-0.8-0.8   c0-0.4,0.4-0.8,0.8-0.8c0.4,0,0.8,0.4,0.8,0.8C52.8,21.3,52.4,21.7,52,21.7z M56.3,58.7l-3.6,4.9V28.2c1.1,1.1,2.3,2,3.6,2.7V58.7z    M57.1,27.5c-0.4,0-0.8-0.4-0.8-0.8c0-0.4,0.4-0.8,0.8-0.8c0.4,0,0.8,0.4,0.8,0.8C57.9,27.2,57.5,27.5,57.1,27.5z M61.4,51.7   l-3.6,4.9V31.7c1.2,0.4,2.4,0.6,3.6,0.5V51.7z M62.2,29.9c-0.4,0-0.8-0.4-0.8-0.8c0-0.4,0.4-0.8,0.8-0.8c0.4,0,0.8,0.4,0.8,0.8   C63,29.5,62.6,29.9,62.2,29.9z M66.5,44.6L63,49.5V32.1c1.2-0.2,2.4-0.6,3.6-1V44.6z M67.3,29c-0.4,0-0.8-0.4-0.8-0.8   c0-0.4,0.4-0.8,0.8-0.8c0.4,0,0.8,0.4,0.8,0.8C68.1,28.7,67.7,29,67.3,29z M71.6,37.6l-3.6,4.9v-12c1.3-0.6,2.5-1.1,3.6-1.5V37.6z    M72.4,26.8c-0.4,0-0.8-0.4-0.8-0.8c0-0.4,0.4-0.8,0.8-0.8s0.8,0.4,0.8,0.8C73.2,26.4,72.8,26.8,72.4,26.8z M73.2,35.5v-7   c0.6-0.1,1.1-0.1,1.5,0.2c2.2,1.8,0,4.7,0,4.7L73.2,35.5z"/></g><text x="0" y="115" fill="#000000" font-size="5px" font-weight="bold" font-family="'Helvetica Neue', Helvetica, Arial-Unicode, Arial, Sans-serif">Created by parkjisun</text><text x="0" y="120" fill="#000000" font-size="5px" font-weight="bold" font-family="'Helvetica Neue', Helvetica, Arial-Unicode, Arial, Sans-serif">from the Noun Project</text></svg>