<svg xmlns="http://www.w3.org/2000/svg" xmlns:xlink="http://www.w3.org/1999/xlink" version="1.1" x="0px" y="0px" viewBox="0 0 32 37.5" style="enable-background:new 0 0 32 30;" xml:space="preserve"><g><path d="M32,16c0-1.263-0.783-2.338-1.888-2.779c-0.282-0.113-0.471-0.375-0.546-0.669c-0.332-1.304-0.85-2.534-1.521-3.664   c-0.162-0.272-0.227-0.606-0.101-0.897c0.472-1.094,0.265-2.41-0.629-3.304s-2.21-1.101-3.304-0.629   c-0.291,0.125-0.625,0.06-0.897-0.101c-1.103-0.654-2.302-1.162-3.573-1.494c-0.294-0.077-0.556-0.268-0.666-0.551   C18.438,0.793,17.355,0,16.083,0c-1.254,0-2.322,0.773-2.769,1.866c-0.115,0.281-0.377,0.468-0.672,0.541   c-1.338,0.332-2.599,0.861-3.755,1.548C8.615,4.117,8.282,4.182,7.991,4.057C6.896,3.585,5.58,3.792,4.686,4.686   s-1.101,2.21-0.629,3.304c0.125,0.291,0.06,0.625-0.101,0.897c-0.671,1.13-1.189,2.36-1.521,3.664   c-0.075,0.294-0.264,0.557-0.546,0.669C0.783,13.662,0,14.737,0,16s0.783,2.338,1.888,2.779c0.282,0.113,0.471,0.375,0.546,0.669   c0.332,1.304,0.85,2.534,1.521,3.664c0.162,0.272,0.227,0.606,0.101,0.897c-0.472,1.094-0.265,2.41,0.629,3.304   s2.21,1.101,3.304,0.629c0.291-0.125,0.625-0.06,0.897,0.101C10.974,29.282,13.403,30,16,30s5.026-0.718,7.112-1.956   c0.273-0.162,0.606-0.227,0.897-0.101c1.094,0.472,2.41,0.265,3.304-0.629s1.101-2.21,0.629-3.304   c-0.125-0.291-0.06-0.625,0.101-0.897c0.671-1.13,1.189-2.36,1.521-3.664c0.075-0.294,0.264-0.557,0.546-0.669   C31.217,18.338,32,17.263,32,16z M10.258,26.521c-0.351-0.193-0.527-0.592-0.48-0.99c0.103-0.877-0.176-1.788-0.849-2.461   c-0.673-0.673-1.584-0.952-2.461-0.849c-0.397,0.047-0.796-0.129-0.989-0.48c-0.406-0.741-0.737-1.528-0.981-2.353   c-0.116-0.393,0.056-0.803,0.376-1.059C5.559,17.782,6,16.945,6,16c0-0.945-0.441-1.782-1.126-2.329   c-0.32-0.256-0.492-0.666-0.376-1.059c0.244-0.825,0.574-1.613,0.981-2.354c0.192-0.351,0.591-0.527,0.989-0.48   c0.877,0.103,1.788-0.176,2.461-0.849c0.673-0.673,0.952-1.584,0.849-2.461c-0.047-0.398,0.129-0.796,0.48-0.989   c0.762-0.419,1.574-0.757,2.425-1.004c0.394-0.114,0.804,0.06,1.058,0.383C14.287,5.552,15.13,6,16.083,6   c0.938,0,1.768-0.434,2.315-1.109c0.258-0.319,0.669-0.488,1.061-0.37c1.033,0.312,2.007,0.76,2.903,1.323   c-0.355,1.047-0.127,2.25,0.708,3.085c0.673,0.673,1.584,0.952,2.461,0.849c0.397-0.047,0.796,0.129,0.989,0.48   c0.406,0.741,0.737,1.528,0.981,2.354c0.116,0.393-0.056,0.803-0.376,1.059C26.441,14.218,26,15.055,26,16   c0,0.945,0.441,1.782,1.126,2.329c0.32,0.256,0.492,0.666,0.376,1.059c-0.244,0.825-0.574,1.613-0.981,2.353   c-0.192,0.351-0.591,0.527-0.989,0.48c-0.877-0.103-1.788,0.176-2.461,0.849c-0.673,0.673-0.952,1.584-0.849,2.461   c0.047,0.398-0.129,0.797-0.48,0.99C20.035,27.459,18.081,28,16,28S11.965,27.459,10.258,26.521z"/></g><text x="0" y="45" fill="#000000" font-size="5px" font-weight="bold" font-family="'Helvetica Neue', Helvetica, Arial-Unicode, Arial, Sans-serif">Created by Dmitry Mirolyubov</text><text x="0" y="50" fill="#000000" font-size="5px" font-weight="bold" font-family="'Helvetica Neue', Helvetica, Arial-Unicode, Arial, Sans-serif">from the Noun Project</text></svg>